<svg xmlns="http://www.w3.org/2000/svg" viewBox="0 0 512 512" role="img" aria-labelledby="title desc">
  <title id="title">Regime Guard CMC Strategy logo</title>
  <desc id="desc">Abstract shield logo with candlestick bars and a signal wave.</desc>
  <defs>
    <linearGradient id="shieldFill" x1="104" y1="72" x2="408" y2="448" gradientUnits="userSpaceOnUse">
      <stop offset="0" stop-color="#272b33"/>
      <stop offset="1" stop-color="#111318"/>
    </linearGradient>
    <linearGradient id="goldFill" x1="144" y1="112" x2="368" y2="388" gradientUnits="userSpaceOnUse">
      <stop offset="0" stop-color="#ffd45a"/>
      <stop offset="1" stop-color="#f0b90b"/>
    </linearGradient>
    <filter id="softShadow" x="-20%" y="-20%" width="140%" height="140%">
      <feDropShadow dx="0" dy="18" stdDeviation="18" flood-color="#0b0d12" flood-opacity=".22"/>
    </filter>
  </defs>

  <rect width="512" height="512" rx="112" fill="#f7f9fc"/>
  <g filter="url(#softShadow)">
    <path
      d="M256 56 398 108v116c0 94-54 174-142 232-88-58-142-138-142-232V108L256 56Z"
      fill="url(#shieldFill)"
    />
    <path
      d="M256 92 364 132v92c0 72-39 135-108 183-69-48-108-111-108-183v-92L256 92Z"
      fill="none"
      stroke="url(#goldFill)"
      stroke-width="18"
      stroke-linejoin="round"
    />
  </g>

  <g stroke-linecap="round" stroke-linejoin="round">
    <path
      d="M160 309c28-46 62-66 102-60 32 5 52 27 90-25"
      fill="none"
      stroke="#28d7a0"
      stroke-width="18"
    />
    <path
      d="M352 224h-42l18-28"
      fill="none"
      stroke="#28d7a0"
      stroke-width="18"
    />
  </g>

  <g fill="url(#goldFill)">
    <rect x="184" y="202" width="30" height="112" rx="12"/>
    <rect x="241" y="158" width="30" height="156" rx="12"/>
    <rect x="298" y="184" width="30" height="130" rx="12"/>
  </g>

  <g stroke="#f0b90b" stroke-width="12" stroke-linecap="round">
    <path d="M199 178v-28"/>
    <path d="M199 338v24"/>
    <path d="M256 132v-30"/>
    <path d="M256 338v34"/>
    <path d="M313 160v-32"/>
    <path d="M313 338v28"/>
  </g>
</svg>
